<?xml version="1.0" encoding="UTF-8"?>
<svg width="541.87mm" height="739.5mm" version="1.1" viewBox="0 0 1919.9997 2620.2664" xmlns="http://www.w3.org/2000/svg">
 <g transform="translate(462.27 2070.9)">
  <g transform="matrix(.92234 0 0 .92234 755.37 -1447.7)">
   <path d="m66.742-675.71s-27.014 14.099-71.789 46.766c-44.2 32.247-107.96 85.278-171.94 164.68-60.327 74.821-121.64 174.18-163.95 298.59-31.364 92.532-51.359 196.42-53.771 307.75-9.8409-13.487-19.904-25.837-29.922-37.031-47.293-53.034-95.782-83.404-127.94-99.877-32.922-16.864-52.168-21.979-52.168-21.979s11.449 16.573 26.463 47.701c15.089 31.284 32.483 76.384 40.389 132.04 7.144 51.101 5.7906 109.51-11.344 164.02-10.393 34.776-26.536 68.711-46.998 102.51-18.972 31.3-41.982 61.107-68.006 90.516-49.059 56.85-109.59 106.55-178.88 167.48-62.638 53.901-131.76 112.34-199.55 183.92-5.5242 5.8338-11.049 11.766-16.568 17.795-36.272 39.531-72.026 83.717-105.55 132.73-33.552 48.96-63.624 102.72-88.572 160.6-41.162 96.373-62.027 195.54-66.06 291.2-4.4822 103.7 10.888 200.35 38.422 285.04 32.916 100.83 81.898 180.78 130.18 240.46 51.209 63.349 102.43 104.97 137.83 130 35.886 25.367 57.551 35.994 57.551 35.994s-9.7251-22.298-22.676-62.146c-13.017-40.051-28.26-96.674-35.963-165.2-7.2108-64.456-7.3835-136.74 5.2832-210.81 10.495-62.006 29.442-123.74 56.266-182.85 24.758-54.319 55.598-105.1 90.768-149.99 21.328-27.743 45.801-55.417 71.986-84.23 26.278-28.857 55.466-58.813 85.48-90.522 4.5974-4.8429 9.2257-9.7204 13.881-14.641 56.504-59.723 120.32-129.01 181.33-209.03 3.9532-5.0834 7.8733-10.219 11.768-15.395 5.3602 46.392 15.791 93.449 31.967 140.21 35.522 98.427 86.343 181.97 141.43 247.3 4.1111 5.0014 8.2293 9.9128 12.348 14.732 50.559 59.169 102.24 105.78 148.65 146.73 51.486 46.734 95.75 80.715 132.97 120.3 40.38 43.455 74.34 84.596 92.23 133.18 15.88 38.436 19.845 82.382 16.559 121.89-3.7052 43.119-15.582 78.944-26.482 104.28-10.811 25.124-19.469 38.783-19.469 38.783s15.849-1.8103 43.826-11.779c27.286-9.7226 69.271-29.139 112.28-67.684 39.77-35.495 82.354-89.226 108.24-164.35 29.941-90.763 35.743-200.28 6.2559-307.84-25.302-95.347-67.418-183.18-117.05-257.63-14.864-22.893-29.976-44.586-45.029-65.135 8.0477 8.0579 16.042 16.072 23.912 24.004 85.089 87.257 159.83 163.46 217.59 248.21 30.721 44.25 56.785 88.917 76.943 134.83 21.751 49.638 37.018 98.777 44.387 147.62 12.356 76.894 3.5233 153.86-14.473 218.78-19.7 70.596-49.437 125.45-73.447 162.48-23.971 36.973-40.895 55.896-40.895 55.896s24.133-7.0838 65.252-28.892c40.232-21.338 100.41-59.951 159.24-125.89 54.419-60.813 109.92-147.74 139.27-261.24 18.115-71.104 25.924-149.14 20.678-230.51-4.7149-74.863-19.155-151.24-43.521-226.61-46.239-140.85-118.04-270.24-201.67-385.55-39.945-55.99-81.156-108.43-121.76-157.86-34.496-42.079-68.938-82.447-101.45-120.52-5.8045-6.7982-11.587-13.569-17.328-20.303-37.596-44.208-74.015-86.778-107.03-128.87-32.851-41.956-63.226-83.139-89.252-124.82-42.947-67.855-77.588-142.5-102.63-220.16-27.116-84.436-42.252-170.3-45.959-254.08-4.5557-100.01 7.5647-194.2 27.146-275.9 20.842-86.799 49.338-156.64 71.998-205.04 22.615-48.304 38.295-74.666 38.295-74.666z" fill="#f60" fill-rule="evenodd"/>
  </g>
 </g>
</svg>
